<svg xmlns="http://www.w3.org/2000/svg" viewBox="0 0 339.82 512"><defs><style>.cls-1{fill:#ffd6a6;}.cls-2{fill:#320;}.cls-3{fill:#ffdfba;}.cls-4{fill:#42434d;}.cls-5{fill:#fff;}.cls-6{fill:#4d4e59;}.cls-7{fill:#2c2c33;}.cls-8{fill:#f7c388;}.cls-9{fill:#472f00;}.cls-10{fill:#ffebd2;}</style></defs><g id="Layer_2" data-name="Layer 2"><g id="Layer_1-2" data-name="Layer 1"><path class="cls-1" d="M339.82,459.86v43.31A8.83,8.83,0,0,1,331,512H8.83A8.83,8.83,0,0,1,0,503.17V459.86a82.29,82.29,0,0,1,82.3-82.28,45.67,45.67,0,0,0,38.35-20.81c8.18-12.57,7.33-23.5,7.33-32.33l.17-.41a109.25,109.25,0,0,1-67.47-101v-3.45A27.21,27.21,0,0,1,33.1,192.55V146.69c-.35-16,.37-72.26,41-111.47C121.43-10.35,196.37-6.62,250.65,17.76a2.21,2.21,0,0,1-.08,4.06l-14.15,5.82a2.21,2.21,0,0,0,.61,4.24l6.87.74c37,4,67.75,26,83.1,52.19a.69.69,0,0,1-.11.8,66.77,66.77,0,0,0-19.07,46.73V191a28.66,28.66,0,0,1-28.68,28.67v3.45a109.25,109.25,0,0,1-67.47,101l.17.41c0,8.58-.91,19.66,7.33,32.33a45.68,45.68,0,0,0,38.35,20.81,82.29,82.29,0,0,1,82.3,82.28Z"/><path class="cls-2" d="M327,84.81a.67.67,0,0,1-.12.8,66.82,66.82,0,0,0-19.06,46.73V191a28.66,28.66,0,0,1-28.68,28.67c0-33.39,0-50.83,0-60.21A8.81,8.81,0,0,0,267.77,151c-17.79,5.47-38.54,8.29-60.35,3.56-38.37-8.35-49.24-23.38-80.54-30.9a53.74,53.74,0,0,0-66.47,52.68c.06,11.26.25,25.34.27,43.31A27.22,27.22,0,0,1,33.1,192.55V146.69c-.35-16,.38-72.26,41-111.47C121.43-10.35,196.37-6.62,250.65,17.76a2.21,2.21,0,0,1-.08,4.06l-14.15,5.83a2.2,2.2,0,0,0,.6,4.23l6.88.74C280.89,36.58,311.65,58.64,327,84.81Z"/><path class="cls-3" d="M267.77,151a8.81,8.81,0,0,1,11.38,8.43c0,9.71,0,28,0,63.68A109.25,109.25,0,0,1,211.67,324c-71.62,29.73-151-23.09-151-100.95,0-20.14-.2-34.45-.27-46.77a53.73,53.73,0,0,1,66.47-52.68c31.3,7.52,42.17,22.55,80.54,30.9C229.23,159.26,250,156.44,267.77,151Z"/><path class="cls-4" d="M339.82,459.86v43.31A8.83,8.83,0,0,1,331,512H8.83A8.83,8.83,0,0,1,0,503.17V459.86a82.3,82.3,0,0,1,82.29-82.28,45.67,45.67,0,0,0,38.36-20.81,75.72,75.72,0,0,0,98.52,0,45.67,45.67,0,0,0,38.36,20.81,82.29,82.29,0,0,1,82.29,82.28Z"/><path class="cls-5" d="M259.28,493.24H232.8a8.83,8.83,0,1,1,0-17.65h26.48a8.83,8.83,0,1,1,0,17.65Z"/><path class="cls-6" d="M126.75,404.24a44.93,44.93,0,0,1-13.15,2c-45.56.4-82.71,36.43-82.71,82v8.29A15.45,15.45,0,0,1,15.45,512H8.83A8.83,8.83,0,0,1,0,503.17V459.86a82.3,82.3,0,0,1,82.29-82.28,45.67,45.67,0,0,0,38.36-20.81,75.2,75.2,0,0,0,10.49,7.53c16.28,9.7,13.69,34.25-4.39,39.94Z"/><path class="cls-7" d="M213.07,404.24a45,45,0,0,0,13.15,2c45.56.4,82.71,36.43,82.71,82v8.29A15.45,15.45,0,0,0,324.37,512H331a8.83,8.83,0,0,0,8.83-8.83V459.86a82.29,82.29,0,0,0-82.29-82.28,45.67,45.67,0,0,1-38.36-20.81,75.2,75.2,0,0,1-10.49,7.53c-16.28,9.7-13.68,34.25,4.39,39.94Z"/><path class="cls-8" d="M213.08,342.55a109.51,109.51,0,0,1-86.34,0c1.49-6.2,1.24-10.22,1.24-18.11l.17-.41a109.45,109.45,0,0,0,83.52,0l.17.41C211.84,332.33,211.59,336.35,213.08,342.55Z"/><path class="cls-9" d="M250.57,21.82c-10.4,4.28-12.7,5.78-17.48,5C145.55,12.41,76.61,58.18,67.18,147.63a13.48,13.48,0,0,1-1.26,4.53c-6.72,13.67-5.52,23.78-5.38,40.6.15,17.69-26.51,18.82-27.41,1.15-.05-1.1,0,1.81,0-47.22-.35-16,.37-72.26,41-111.47C121.43-10.35,196.37-6.62,250.65,17.76A2.21,2.21,0,0,1,250.57,21.82Z"/><path class="cls-10" d="M145.19,293.62c17.95,11.23,3.79,38.77-15.86,30.89A109.25,109.25,0,0,1,60.68,223.08c0-20.16-.2-34.4-.27-46.77a53.67,53.67,0,0,1,8.83-29.95c7.08-10.78,24.17-6.09,24.27,7.88.07,12.42.27,26.59.27,46.77C93.78,241.28,115,274.71,145.19,293.62Z"/></g></g></svg>