<svg xmlns="http://www.w3.org/2000/svg" viewBox="0 0 339.83 512"><defs><style>.cls-1{fill:#ffdfba;}.cls-2{fill:#704900;}.cls-3{fill:#d6f4fc;}.cls-4{fill:#e8f8fc;}.cls-5{fill:#ffebd2;}.cls-6{fill:#7d5100;}.cls-7{fill:#ffd6a6;}.cls-8{fill:#bdeffc;}.cls-9{fill:#f1fafc;}.cls-10{fill:#fff3e4;}.cls-11{fill:#fe4f60;}.cls-12{fill:#e84857;}.cls-13{fill:#2d4456;}</style></defs><g id="Layer_2" data-name="Layer 2"><g id="Layer_1-2" data-name="Layer 1"><path class="cls-1" d="M339.83,459.61v43.56A8.83,8.83,0,0,1,331,512H8.83A8.83,8.83,0,0,1,0,503.17V459.61c0-45.5,37.23-81.59,82.73-82a45.71,45.71,0,0,0,37-19.5C128.91,345,128,333.27,128,324.43l.16-.41A109.24,109.24,0,0,1,60.68,223.07v-3.45a27.44,27.44,0,0,1-22.31-11.1s0,0,0,0a26.81,26.81,0,0,1-5.26-16V85A29.79,29.79,0,0,1,62.89,55.22,87.75,87.75,0,0,1,144.37.05c52.51,0,86.25-.39,89.06,1,.67.1,6.75,1.18,7.23,1.42,8.73,2,18.38,6.45,18.82,6.9a87.73,87.73,0,0,1,48.35,78.42V190.93a28.69,28.69,0,0,1-28.69,28.69v3.45A109.23,109.23,0,0,1,211.68,324l.16.41c0,8.59-1,20.49,8.22,33.65a45.69,45.69,0,0,0,37,19.5c45.5.44,82.73,36.53,82.73,82Z"/><path class="cls-2" d="M307.83,87.81V190.93a28.69,28.69,0,0,1-28.69,28.69v-61.1a8.81,8.81,0,0,0-8.28-8.8,315.9,315.9,0,0,1-150.19-48.31,8.84,8.84,0,0,0-13.29,5.25c-2.31,8.72-7.49,19.9-19.11,26.89-10.69,6.44-19,5.17-22.07,6.45a8.79,8.79,0,0,0-5.52,8.16v71.46a27.44,27.44,0,0,1-22.31-11.1s0,0,0,0a26.63,26.63,0,0,1-4.76-10.81c-.71-3.61-.5,4.53-.5-112.67A29.79,29.79,0,0,1,62.89,55.22,87.77,87.77,0,0,1,144.37.05c52.51,0,86.25-.39,89.06,1a87.4,87.4,0,0,1,23.74,7.19c.13.06,2.23,1,2.31,1.13a87.73,87.73,0,0,1,48.35,78.42Z"/><path class="cls-3" d="M339.83,459.61v43.56A8.83,8.83,0,0,1,331,512H8.83A8.83,8.83,0,0,1,0,503.17V459.61c0-45.5,37.23-81.59,82.73-82a45.71,45.71,0,0,0,37-19.5l43.58,48.44a8.83,8.83,0,0,0,13.13,0c12.6-14,2.31-2.58,43.58-48.44a45.69,45.69,0,0,0,37,19.5c45.5.44,82.73,36.53,82.73,82Z"/><path class="cls-4" d="M239.51,373.9c-.13.29-11,49.83-10.95,49.51A8.13,8.13,0,0,1,214.49,427c-29-33.36-25-29-28-31.66l33.52-37.25a46,46,0,0,0,19.45,15.82Z"/><path class="cls-4" d="M119.77,358.08l32.72,36.37-27.14,32.17a8.12,8.12,0,0,1-14.14-3.49c-.07-.32-10.76-48.94-10.89-49.24a45.86,45.86,0,0,0,19.45-15.81Z"/><path class="cls-5" d="M279.14,223.07a109.23,109.23,0,0,1-218.46,0v-74.9A8.82,8.82,0,0,1,69,139.36c17.87-1,32.92-12.22,38.34-32.71a8.85,8.85,0,0,1,13.29-5.24,315.85,315.85,0,0,0,150.19,48.31,8.81,8.81,0,0,1,8.28,8.81Z"/><path class="cls-6" d="M253.65,33.15H177.47A87.75,87.75,0,0,0,98.61,82.43,12.17,12.17,0,0,1,90,88.92,29.82,29.82,0,0,0,66.2,118.11V140a8.79,8.79,0,0,0-5.52,8.16v52.4c0,12.4-16.15,17.26-22.81,7.26a27.2,27.2,0,0,1-4-9.13c-1-4.29-.72,4-.72-113.68A29.79,29.79,0,0,1,62.89,55.22,87.77,87.77,0,0,1,144.37.05c52.15,0,86.24-.39,89.06,1a87.91,87.91,0,0,1,21.72,6.29c.34.14,4.17,1.86,4.33,2,11.89,6,7.51,23.83-5.83,23.76Z"/><path class="cls-7" d="M213.09,342.55a109.54,109.54,0,0,1-86.35,0c1.5-6.21,1.25-10.23,1.25-18.12l.16-.41a109.43,109.43,0,0,0,83.53,0l.16.41c0,7.89-.25,11.91,1.25,18.12Z"/><path class="cls-4" d="M106.05,399.74a82.28,82.28,0,0,0-78.47,82.18V512H8.83A8.83,8.83,0,0,1,0,503.17V459.68c0-45.52,37.24-81.63,82.76-82.1a45.89,45.89,0,0,0,17.56-3.68c.13.29,5.66,25.52,5.73,25.84Z"/><path class="cls-8" d="M233.78,399.74a82.27,82.27,0,0,1,78.46,82.18V512H331a8.83,8.83,0,0,0,8.83-8.83V459.68c0-45.52-37.24-81.63-82.76-82.1a45.89,45.89,0,0,1-17.56-3.68C239.38,374.19,233.85,399.42,233.78,399.74Z"/><path class="cls-9" d="M120.46,404.42c1.65,7.47,3.4,15.43,4.89,22.19a8.12,8.12,0,0,1-14.14-3.48c-4.24-19.27-10.8-49-10.89-49.23a46,46,0,0,0,19.45-15.82l9.42,10.49a42.59,42.59,0,0,0-8.73,35.85Z"/><path class="cls-10" d="M145.82,125.7c-1.94,15.64-8.8,29.67-20.24,38.17-20.36,15.14-31.8,39.49-31.8,64.87v27.43c0,16.36-20.82,19.33-26,5.71a108.87,108.87,0,0,1-7.1-38.81v-74.9A8.82,8.82,0,0,1,69,139.36c17.92-1,32.94-12.27,38.34-32.71a8.84,8.84,0,0,1,13.28-5.25c5.58,3.53,11.65,7.12,18.2,10.66a13.58,13.58,0,0,1,7,13.64Z"/><path class="cls-11" d="M186.54,395.33,203,512h-66.2l15.68-117.55,10.86,12.07a8.83,8.83,0,0,0,13.12,0Z"/><path class="cls-12" d="M164,407.26,150.05,512H136.81l15.68-117.55Z"/><path class="cls-13" d="M229.81,153.75A50.51,50.51,0,0,0,180.05,196H159a50.43,50.43,0,1,0,0,16.3h21.07a50.43,50.43,0,1,0,49.76-58.59Zm-120.6,84.57a34.14,34.14,0,1,1,34.14-34.13A34.17,34.17,0,0,1,109.21,238.32Zm120.6,0A34.14,34.14,0,1,1,264,204.19,34.17,34.17,0,0,1,229.81,238.32Z"/></g></g></svg>