<svg xmlns="http://www.w3.org/2000/svg" viewBox="0 0 336.18 512"><defs><style>.cls-1{fill:#4d3600;}.cls-2{fill:#422e00;}.cls-3{fill:#ffc4ad;}.cls-4{fill:#ffb69f;}.cls-5{fill:#86dcff;}.cls-6{fill:#ff5876;}.cls-7{fill:#e6485d;}.cls-8{fill:#ffe0cc;}.cls-9{fill:#ffceb3;}.cls-10{fill:#e4eef9;}.cls-11{fill:#41adf7;}.cls-12{fill:#1ba0ea;}.cls-13{fill:#2d4456;}</style></defs><g id="Layer_2" data-name="Layer 2"><g id="Layer_1-2" data-name="Layer 1"><path class="cls-1" d="M300.64,194.26l12.13-10.9C354.93.76,225.7,20,225.7,20s-39-34.48-109.16-13C48.05,28.07,42.25,74.9,2.62,98.51a5.27,5.27,0,0,0-.71,8.61c6,4.94,17.29,11.55,34.61,11.6-1.09,18.94.74,40.36,6,64.41l12.08,11.13Z"/><path class="cls-2" d="M74.93,156.6a33.1,33.1,0,0,0-32.44,26.53q1.18,5.48,2.61,11.13H78.35V156.77c-1.12-.11-2.26-.17-3.42-.17Z"/><path class="cls-2" d="M310.11,194.26q1.42-5.56,2.65-10.9a33.09,33.09,0,0,0-32.48-26.76c-1.16,0-2.3.06-3.42.17v37.49Z"/><path class="cls-3" d="M78.35,215.48V175.7a32.08,32.08,0,0,0-3.42-.18,33.11,33.11,0,0,0-31.72,23.63c-.89,3,13.44,33.1,31.72,33.1l3.67-9.67c-.16-2.35-.25-4.72-.25-7.1Z"/><path class="cls-4" d="M74.93,222.79a33.1,33.1,0,0,1-31.71-23.64,33.1,33.1,0,0,0,31.71,42.56,33.38,33.38,0,0,0,6.75-.69l7.5-9.08-10.57-9.36a34.46,34.46,0,0,1-3.68.21Z"/><path class="cls-5" d="M326.71,502.54H28.5L19,493.08V427.55A122.29,122.29,0,0,1,141.32,305.27h72.57A122.28,122.28,0,0,1,336.17,427.55v65.53Z"/><path class="cls-5" d="M24.29,512h49.5l7.89-9.46L89.56,512H265.65l7.88-9.46,7.89,9.46h49.5a5.26,5.26,0,0,0,5.26-5.26V493.08H19v13.66A5.26,5.26,0,0,0,24.29,512Z"/><path class="cls-6" d="M159.2,350.26l18.4-9.46,18.4,9.46,14,76.94-3.84,13.34L177.6,469.42l-28.38-28.66-4.05-13.56Z"/><path class="cls-7" d="M173.87,456.19l-28.7-29-2.43,13.28a5.27,5.27,0,0,0,1.44,4.64l29.69,30a5.25,5.25,0,0,0,7.47,0l29.68-30a5.24,5.24,0,0,0,1.44-4.64L210,427.2l-28.69,29a5.25,5.25,0,0,1-7.47,0Z"/><path class="cls-7" d="M196,350.26H159.2l-17.47-45h71.74Z"/><path class="cls-3" d="M276.86,215.48V175.7a32.08,32.08,0,0,1,3.42-.18A33.11,33.11,0,0,1,312,199.15c.89,3-13.45,33.1-31.72,33.1l-3.68-9.67Q276.85,219.05,276.86,215.48Z"/><path class="cls-4" d="M280.28,222.79A33.1,33.1,0,0,0,312,199.15,33.11,33.11,0,0,1,273.53,241L266,231.94l10.58-9.36a34.32,34.32,0,0,0,3.68.21Z"/><path class="cls-8" d="M210.59,80.43c-37.51,42-109.14,54.69-127.74,57.35a5.25,5.25,0,0,0-4.5,5.2v63a99.25,99.25,0,0,0,198.5,0V143.66a5.25,5.25,0,0,0-3.13-4.81c-9.33-4.07-37.3-19-54.46-57a5.25,5.25,0,0,0-8.67-1.39Z"/><path class="cls-9" d="M177.6,295.8a99.25,99.25,0,0,1-99.25-99.25v18.93a99.25,99.25,0,0,0,198.5,0V196.55A99.24,99.24,0,0,1,177.6,295.8Z"/><circle class="cls-10" cx="119.13" cy="196.1" r="40.89"/><circle class="cls-10" cx="235.88" cy="195.91" r="40.9"/><path class="cls-11" d="M89.56,493.08V442.67a7.89,7.89,0,0,0-15.77,0v50.41l7.89,9.46Z"/><path class="cls-12" d="M73.79,493.08H89.56V512H73.79Z"/><path class="cls-11" d="M281.42,493.08V442.67a7.89,7.89,0,0,0-15.77,0v50.41l7.88,9.46Z"/><path class="cls-12" d="M265.65,493.08h15.77V512H265.65Z"/><path class="cls-13" d="M235.94,147.3a48.86,48.86,0,0,0-48.14,40.91H167.41a48.8,48.8,0,1,0,0,15.77H187.8a48.79,48.79,0,1,0,48.14-56.68ZM119.26,229.12a33,33,0,1,1,33-33A33.05,33.05,0,0,1,119.26,229.12Zm116.68,0a33,33,0,1,1,33-33A33.06,33.06,0,0,1,235.94,229.12Z"/></g></g></svg>